<svg width="16" height="16" viewBox="0 0 16 16" fill="none" xmlns="http://www.w3.org/2000/svg">
<g clip-path="url(#clip0_4894_22920)">
<path d="M16.0027 11.3334C16.0032 11.4211 15.9864 11.5081 15.9532 11.5893C15.92 11.6705 15.8712 11.7444 15.8094 11.8067C15.7474 11.8692 15.6737 11.9188 15.5924 11.9526C15.5112 11.9865 15.424 12.0039 15.336 12.0039C15.248 12.0039 15.1609 11.9865 15.0797 11.9526C14.9984 11.9188 14.9247 11.8692 14.8627 11.8067L9.41605 6.36004C9.04105 5.98551 8.53272 5.77513 8.00272 5.77513C7.47272 5.77513 6.96439 5.98551 6.58939 6.36004L1.14273 11.8067C1.01719 11.9322 0.846928 12.0028 0.669394 12.0028C0.491859 12.0028 0.321596 11.9322 0.196061 11.8067C0.0705252 11.6812 0 11.5109 0 11.3334C0 11.1558 0.0705252 10.9856 0.196061 10.86L5.64272 5.41337C5.95236 5.10295 6.32019 4.85667 6.72516 4.68862C7.13013 4.52058 7.56427 4.43408 8.00272 4.43408C8.44117 4.43408 8.87531 4.52058 9.28027 4.68862C9.68524 4.85667 10.0531 5.10295 10.3627 5.41337L15.8094 10.86C15.8712 10.9223 15.92 10.9962 15.9532 11.0774C15.9864 11.1587 16.0032 11.2456 16.0027 11.3334Z" fill="#D4D4D4"/>
</g>
<defs>
<clipPath id="clip0_4894_22920">
<rect width="16" height="16" fill="white" transform="matrix(0 -1 1 0 0 16)"/>
</clipPath>
</defs>
</svg>
